<svg id="money_1_" data-name="money (1)" xmlns="http://www.w3.org/2000/svg" width="300" height="300" viewBox="0 0 300 300">
  <circle id="Ellipse_8" data-name="Ellipse 8" cx="150" cy="150" r="150" fill="#ffe14d"/>
  <path id="Path_2" data-name="Path 2" d="M406,150C406,67.29,338.71,0,256,0V300C338.71,300,406,232.71,406,150Z" transform="translate(-106)" fill="#fb3"/>
  <g id="Group_9" data-name="Group 9" transform="translate(35.742 35.742)">
    <g id="Group_8" data-name="Group 8">
      <path id="Path_3" data-name="Path 3" d="M175.258,289.516A114.258,114.258,0,1,1,289.516,175.258,114.39,114.39,0,0,1,175.258,289.516Z" transform="translate(-61 -61)" fill="#fb3"/>
    </g>
  </g>
  <path id="Path_4" data-name="Path 4" d="M370.258,175.258A114.39,114.39,0,0,0,256,61V289.516A114.39,114.39,0,0,0,370.258,175.258Z" transform="translate(-106 -25.258)" fill="#e68a2e"/>
  <g id="Cent_2_" transform="translate(106.055 70.813)">
    <path id="Path_5" data-name="Path 5" d="M233.734,191.878v-34.75c10.109,2.48,17.578,8.984,17.578,16.46a8.789,8.789,0,1,0,17.578,0c0-16.982-15.118-31.18-35.156-34.445v-9.5a8.789,8.789,0,0,0-17.578,0v9.5C196.118,142.408,181,156.607,181,173.588s15.118,31.18,35.156,34.445v34.75c-10.109-2.48-17.578-8.984-17.578-16.46a8.789,8.789,0,0,0-17.578,0c0,16.982,15.118,31.18,35.156,34.445v9.586a8.789,8.789,0,0,0,17.578,0v-9.586c20.038-3.265,35.156-17.463,35.156-34.445s-15.118-31.181-35.156-34.445Zm-35.156-18.289c0-7.476,7.47-13.98,17.578-16.46v32.92C206.048,187.568,198.578,181.064,198.578,173.588Zm35.156,69.195v-32.92c10.109,2.48,17.578,8.984,17.578,16.46s-7.47,13.979-17.578,16.46Z" transform="translate(-181 -120.854)" fill="#ffe14d"/>
  </g>
  <path id="Path_6" data-name="Path 6" d="M264.789,270.354v-9.586c20.038-3.265,35.156-17.463,35.156-34.445s-15.118-31.18-35.156-34.445v-34.75c10.109,2.48,17.578,8.984,17.578,16.46a8.789,8.789,0,0,0,17.578,0c0-16.982-15.118-31.18-35.156-34.445v-9.5A8.784,8.784,0,0,0,256,120.854V279.143A8.784,8.784,0,0,0,264.789,270.354Zm0-60.492c10.109,2.48,17.578,8.984,17.578,16.46s-7.47,13.98-17.578,16.46Z" transform="translate(-106 -50.041)" fill="#fb3"/>
</svg>
